# xmcd
#
# Track frame offsets:
#	150
#	18102
#	31047
#	42483
#
# Disc length: 782 seconds
#
# Revision: 1
# Processed by: cddbd v1.5.2PL0 Copyright (c) Steve Scherf et al.
# Submitted via: audiograbber 1.83.01
#
DISCID=22030c04
DTITLE=Michael Holderbusch - HOLD ON TO LOVE
DYEAR=2011
DGENRE=Folk-Rock
TTITLE0=Hold on to love
TTITLE1=Waltzing Mathilda
TTITLE2=You are so beautiful
TTITLE3=King of the hill
EXTD=
EXTT0=
EXTT1=
EXTT2=
EXTT3=
PLAYORDER=
